<svg width="515" height="119" viewBox="0 0 515 119" fill="none" xmlns="http://www.w3.org/2000/svg">
<path d="M51.3013 0L102.603 29.6188V88.8564L66.5345 109.68L66.533 109.678L59.6265 113.669L59.1244 112.798C57.1928 109.45 58.3405 105.167 61.6877 103.232L62.5548 102.731L62.5589 102.738L94.6025 84.2376V34.2376L51.3013 9.2376L8 34.2376V84.2376L51.3013 109.238L51.3744 109.195V118.433L51.3013 118.475L0 88.8564V29.6188L51.3013 0Z" fill="#6E56CF"/>
<path d="M30.4739 26.6959C30.6354 26.5348 30.8233 26.4026 31.0295 26.3049L46.0462 19.1888C46.4307 19.0066 46.8884 19.0877 47.187 19.3909L53.1155 25.412C53.5006 25.8032 53.4985 26.4316 53.1107 26.8201L24.085 55.8989C23.6926 56.292 23.0549 56.29 22.665 55.8943L12.7188 45.8019C12.3327 45.4101 12.3355 44.7801 12.725 44.3918L30.4739 26.6959Z" fill="#6E56CF"/>
<path d="M41.7617 50.4933C38.8763 47.3952 39.0167 42.5533 42.0767 39.6275L85.8471 80.3728C87.0717 81.5128 87.1271 83.4341 85.9704 84.6428L81.881 88.916C80.6886 90.162 78.6936 90.1485 77.5182 88.8864L41.7617 50.4933Z" fill="#6E56CF"/>
<path d="M147.295 76.1408C145.327 77.2928 142.975 77.8689 140.239 77.8689C139.231 77.8689 138.343 78.0848 137.575 78.5168C136.807 78.9008 136.135 79.4048 135.559 80.0288C134.983 80.6528 134.479 81.3248 134.047 82.0448C133.615 82.7648 133.255 83.4368 132.967 84.0609C134.023 84.3488 134.911 84.5648 135.631 84.7088C136.399 84.8528 137.095 84.9728 137.719 85.0688C138.343 85.1648 138.919 85.2128 139.447 85.2128C140.023 85.2608 140.647 85.2849 141.319 85.2849C144.967 85.2849 148.351 84.5889 151.471 83.1968C154.639 81.8048 157.351 79.8848 159.607 77.4368C161.863 74.9888 163.639 72.1088 164.935 68.7968C166.231 65.4848 166.879 61.9328 166.879 58.1408C166.879 53.8689 166.183 50.0768 164.791 46.7648C163.447 43.4048 161.455 40.5728 158.815 38.2688C156.223 35.9648 153.031 34.2128 149.239 33.0128C145.495 31.7648 141.223 31.1408 136.423 31.1408C134.311 31.1408 131.863 31.2849 129.079 31.5728C126.295 31.8608 123.295 32.3408 120.079 33.0128V84.4209H130.231V39.1328C131.335 38.9408 132.391 38.7968 133.399 38.7008C134.455 38.6048 135.463 38.5568 136.423 38.5568C139.879 38.5568 142.831 39.0608 145.279 40.0688C147.775 41.0288 149.815 42.3728 151.399 44.1008C152.983 45.8288 154.135 47.8928 154.855 50.2928C155.623 52.6928 156.007 55.3088 156.007 58.1408C156.007 60.5408 155.695 62.9168 155.071 65.2688C154.495 67.6208 153.559 69.7328 152.263 71.6048C150.967 73.4768 149.311 74.9888 147.295 76.1408Z" fill="#6E56CF"/>
<path d="M173.868 84.4209H183.876V32.0768H173.868V84.4209Z" fill="#6E56CF"/>
<path d="M209.339 83.1968C212.795 84.5889 216.755 85.2849 221.219 85.2849C223.235 85.2849 225.299 84.9968 227.411 84.4209C229.571 83.8928 231.731 83.0768 233.891 81.9728L231.227 75.4209C227.771 77.0528 224.435 77.8689 221.219 77.8689C218.339 77.8689 215.843 77.3168 213.731 76.2128C211.619 75.1088 209.867 73.6449 208.475 71.8208C207.083 69.9488 206.027 67.8368 205.307 65.4848C204.635 63.1328 204.299 60.7088 204.299 58.2128C204.299 55.7168 204.635 53.2928 205.307 50.9408C206.027 48.5889 207.083 46.5008 208.475 44.6768C209.867 42.8528 211.619 41.3888 213.731 40.2848C215.843 39.1328 218.339 38.5568 221.219 38.5568C222.851 38.5568 224.411 38.6768 225.899 38.9168C227.387 39.1568 229.187 39.5888 231.299 40.2128L233.891 33.5888C231.587 32.7248 229.403 32.1008 227.339 31.7168C225.275 31.3328 223.235 31.1408 221.219 31.1408C216.899 31.1408 213.011 31.8608 209.555 33.3008C206.099 34.6928 203.171 36.6128 200.771 39.0608C198.371 41.5088 196.523 44.3888 195.227 47.7008C193.979 50.9648 193.355 54.4688 193.355 58.2128C193.355 62.0048 193.955 65.5568 195.155 68.8689C196.403 72.1328 198.203 74.9888 200.555 77.4368C202.955 79.8848 205.883 81.8048 209.339 83.1968Z" fill="#6E56CF"/>
<path d="M270.58 32.0768H239.188V84.4209H271.732V77.0048H249.484V39.4928H270.58V32.0768Z" fill="#6E56CF"/>
<path d="M253.156 58.1408C252.772 59.0048 252.46 59.8208 252.22 60.5888H268.132V53.3168H259.42C258.364 53.3168 257.428 53.5568 256.612 54.0368C255.844 54.4688 255.172 55.0448 254.596 55.7648C254.02 56.4848 253.54 57.2768 253.156 58.1408Z" fill="#6E56CF"/>
<path d="M312.908 32.0768H281.516V84.4209H291.812V39.4928H312.908V32.0768Z" fill="#6E56CF"/>
<path d="M295.484 58.1408C295.1 59.0048 294.788 59.8208 294.548 60.5888H310.46V53.3168H301.748C300.692 53.3168 299.756 53.5568 298.94 54.0368C298.172 54.4688 297.5 55.0448 296.924 55.7648C296.348 56.4848 295.868 57.2768 295.484 58.1408Z" fill="#6E56CF"/>
<path fill-rule="evenodd" clip-rule="evenodd" d="M335.659 83.3409C338.875 84.7328 342.571 85.4288 346.747 85.4288C350.923 85.4288 354.619 84.6848 357.835 83.1968C361.099 81.6608 363.811 79.6449 365.971 77.1488C368.179 74.6048 369.859 71.7009 371.011 68.4368C372.163 65.1728 372.739 61.7648 372.739 58.2128C372.739 55.0448 372.259 51.8528 371.299 48.6368C370.387 45.3728 368.875 42.4448 366.763 39.8528C364.699 37.2128 362.011 35.0768 358.699 33.4448C355.435 31.8128 351.451 30.9968 346.747 30.9968C342.619 30.9968 338.947 31.7168 335.731 33.1568C332.515 34.5488 329.779 36.4928 327.523 38.9888C325.315 41.4368 323.611 44.3168 322.411 47.6288C321.259 50.9408 320.683 54.4688 320.683 58.2128C320.683 62.1008 321.259 65.7008 322.411 69.0128C323.563 72.3248 325.243 75.2048 327.451 77.6528C329.707 80.0528 332.443 81.9488 335.659 83.3409ZM340.195 39.9968C342.067 38.9408 344.251 38.4128 346.747 38.4128C349.099 38.4128 351.211 38.9168 353.083 39.9249C354.955 40.9328 356.539 42.3248 357.835 44.1008C359.131 45.8288 360.115 47.9168 360.787 50.3648C361.507 52.7648 361.867 55.3808 361.867 58.2128C361.867 61.3808 361.435 64.1888 360.571 66.6368C359.755 69.0848 358.651 71.1488 357.259 72.8288C355.867 74.5089 354.259 75.8048 352.435 76.7168C350.611 77.5808 348.715 78.0128 346.747 78.0128C344.251 78.0128 342.067 77.4608 340.195 76.3568C338.323 75.2048 336.739 73.7168 335.443 71.8928C334.195 70.0208 333.235 67.9088 332.563 65.5568C331.939 63.1568 331.627 60.7088 331.627 58.2128C331.627 55.5728 331.939 53.0528 332.563 50.6528C333.235 48.2528 334.195 46.1408 335.443 44.3168C336.739 42.4928 338.323 41.0528 340.195 39.9968Z" fill="#6E56CF"/>
<path d="M415.439 54.6128C416.735 52.5008 417.383 50.0048 417.383 47.1248C417.383 44.5808 416.831 42.3248 415.727 40.3568C414.671 38.3408 413.207 36.6608 411.335 35.3168C409.463 33.9249 407.279 32.8689 404.783 32.1488C402.287 31.4288 399.623 31.0688 396.791 31.0688C395.495 31.0688 394.271 31.0928 393.119 31.1408C391.967 31.1888 390.767 31.2848 389.519 31.4288C388.319 31.5248 386.975 31.6928 385.487 31.9328C383.999 32.1248 382.295 32.3888 380.375 32.7248V84.4209H390.743V38.9168C391.367 38.8689 391.919 38.8208 392.399 38.7728C392.879 38.6768 393.335 38.6288 393.767 38.6288C394.199 38.5808 394.631 38.5568 395.063 38.5568C395.543 38.5089 396.119 38.4848 396.791 38.4848C398.183 38.4848 399.479 38.7009 400.679 39.1328C401.927 39.5648 402.983 40.1648 403.847 40.9328C404.759 41.7009 405.479 42.6128 406.007 43.6688C406.535 44.7248 406.799 45.8768 406.799 47.1248C406.799 48.2768 406.607 49.3568 406.223 50.3648C405.839 51.3728 405.311 52.2608 404.639 53.0288C404.015 53.7488 403.271 54.3488 402.407 54.8288C401.543 55.2608 400.607 55.5248 399.599 55.6208C398.783 55.7168 398.039 55.9809 397.367 56.4128C396.743 56.8448 396.167 57.3969 395.639 58.0688C395.159 58.6928 394.727 59.3888 394.343 60.1568C394.007 60.8768 393.695 61.5728 393.407 62.2448C394.655 62.6288 395.831 62.8689 396.935 62.9648C398.087 63.0128 399.167 62.9888 400.175 62.8928C401.519 63.9488 402.575 65.3168 403.343 66.9968C404.111 68.6768 404.783 70.5008 405.359 72.4688C405.935 74.4368 406.463 76.4769 406.943 78.5889C407.471 80.6528 408.167 82.5968 409.031 84.4209H419.615C418.559 82.1169 417.719 79.8608 417.095 77.6528C416.519 75.3969 415.919 73.2849 415.295 71.3168C414.719 69.3008 414.023 67.4529 413.207 65.7728C412.391 64.0448 411.263 62.5568 409.823 61.3088C409.631 61.1648 409.367 61.0208 409.031 60.8768C408.695 60.7328 408.431 60.6128 408.239 60.5168L410.255 59.7248C412.415 58.4288 414.143 56.7248 415.439 54.6128Z" fill="#6E56CF"/>
<path d="M447.738 40.2128C449.946 39.1088 452.49 38.5568 455.37 38.5568C457.05 38.5568 458.874 38.7488 460.842 39.1328C462.81 39.4688 465.162 40.1648 467.898 41.2208L470.562 34.3088C467.826 33.1568 465.114 32.3408 462.426 31.8608C459.738 31.3808 457.386 31.1408 455.37 31.1408C450.954 31.1408 446.97 31.8608 443.418 33.3008C439.914 34.6928 436.914 36.6128 434.418 39.0608C431.922 41.5088 430.002 44.3888 428.658 47.7008C427.314 50.9648 426.642 54.4928 426.642 58.2849C426.642 62.0288 427.29 65.5568 428.586 68.8689C429.882 72.1328 431.754 74.9888 434.202 77.4368C436.65 79.8848 439.626 81.8048 443.13 83.1968C446.682 84.5889 450.69 85.2849 455.154 85.2849C456.162 85.2849 457.314 85.2128 458.61 85.0688C459.954 84.9249 461.346 84.7088 462.786 84.4209C464.226 84.1328 465.666 83.7728 467.106 83.3409C468.594 82.8608 469.986 82.3328 471.282 81.7569V60.1568H462.066V77.0768C460.53 77.4608 459.258 77.7009 458.25 77.7968C457.242 77.8448 456.21 77.8689 455.154 77.8689C452.274 77.8689 449.73 77.3168 447.522 76.2128C445.362 75.1088 443.538 73.6449 442.05 71.8208C440.61 69.9968 439.506 67.9088 438.738 65.5568C437.97 63.2048 437.586 60.7808 437.586 58.2849C437.586 55.6928 437.97 53.1968 438.738 50.7968C439.506 48.3969 440.634 46.3088 442.122 44.5328C443.658 42.7088 445.53 41.2688 447.738 40.2128Z" fill="#6E56CF"/>
<path d="M513.088 32.0768H481.696V84.4209H514.24V77.0048H491.992V39.4928H513.088V32.0768Z" fill="#6E56CF"/>
<path d="M495.664 58.1408C495.28 59.0048 494.968 59.8208 494.728 60.5888H510.64V53.3168H501.928C500.872 53.3168 499.936 53.5568 499.12 54.0368C498.352 54.4688 497.68 55.0448 497.104 55.7648C496.528 56.4848 496.048 57.2768 495.664 58.1408Z" fill="#6E56CF"/>
</svg>
